PathFileType	4	(X/Y/Z)	D:\TRACE\v60_Jaco2_6-2-23\JustBodyDRS_Motion3_10-v60.trc
DataRate	CameraRate	NumFrames	NumMarkers	Units	OrigDataRate	OrigDataStartFrame	OrigNumFrames
100.00	100.00	      31	9	mm	100.00	6126	      7000
Frame#	Time	front left toe			Front right toe			aft left toe			aft right toe			Arm			FL body			FR body			AL Body			AR Body			
		X1	Y1	Z1	X2	Y2	Z2	X3	Y3	Z3	X4	Y4	Z4	X5	Y5	Z5	X6	Y6	Z6	X7	Y7	Z7	X8	Y8	Z8	X9	Y9	Z9	

6126	61.250	-168.51544	87.75045	-289.47702	201.56078	15.68401	-279.24194	-172.49675	13.21191	346.36362	206.55844	85.54514	332.27966	31.04401	1174.02600	-350.75201	-68.31716	530.54443	-457.49878	90.66910	530.59821	-457.93851	-59.34439	542.28876	486.86282	93.41757	532.95337	486.21600	
6127	61.260	-167.20000	78.94550	-290.28534	201.43143	15.73310	-279.18173	-172.79955	13.53248	346.50128	206.62267	76.31459	331.79553	31.14289	1173.80249	-351.26550	-67.64379	530.29163	-457.97180	91.15775	530.42090	-458.14380	-59.63892	542.28723	486.37814	92.01987	533.08502	485.77127	
6128	61.270	-166.26941	70.20354	-291.00903	201.40350	15.76153	-279.20724	-172.59496	13.11674	346.25854	207.11510	68.06155	331.46176	31.57516	1173.60010	-351.72833	-66.95719	530.00482	-458.09665	90.91508	530.37268	-458.27185	-59.78077	542.24957	486.07404	91.96223	533.07440	485.64685	
6129	61.280	-165.93497	61.35285	-291.01779	201.19476	15.84202	-279.21713	-172.97733	12.69529	346.43375	207.15645	59.97583	331.17960	31.67170	1173.45215	-352.08041	-66.74008	529.64691	-458.54208	91.33776	530.09290	-458.67374	-60.26549	541.99292	485.55972	91.79373	532.99976	485.24661	
6130	61.290	-166.34326	53.09863	-290.93756	200.99577	15.86400	-279.29990	-172.90758	12.75591	346.25314	206.81084	51.89730	330.89581	31.62061	1173.34253	-352.45715	-66.14901	529.03760	-458.86816	91.67785	529.78729	-458.89459	-60.54276	541.84869	484.99390	91.62454	532.93073	485.01556	
6131	61.300	-166.83859	45.73507	-290.92621	200.85635	15.88739	-279.27829	-173.11740	12.60505	346.28253	206.40993	44.67796	330.61096	31.37162	1173.14514	-353.17160	-65.88203	528.72980	-459.47226	92.22646	529.40717	-459.07324	-60.84538	541.75330	484.81982	90.89948	532.79504	484.90842	
6132	61.310	-167.51974	39.08874	-290.59546	200.64893	15.87065	-279.24570	-173.83025	12.98668	346.38177	205.53366	37.13070	330.50888	31.44361	1172.55725	-353.77390	-65.52357	528.51947	-459.91010	93.29248	529.05005	-459.72638	-61.08076	541.73248	484.40543	90.50905	532.67096	484.34637	
6133	61.320	-167.64082	32.49526	-290.30444	200.38831	15.96731	-279.13986	-174.05067	12.85693	346.32251	204.81921	30.69929	330.44489	31.31169	1172.25598	-354.59293	-65.23481	528.28070	-460.29877	93.54839	528.79102	-460.01669	-61.49405	541.53125	483.96338	91.60133	532.44678	484.16263	
6134	61.330	-168.12477	26.45158	-290.54840	200.32837	16.05086	-279.09308	-174.12268	12.77585	346.27734	204.22028	24.01255	330.19196	32.03886	1171.62537	-355.13437	-64.78371	527.92737	-460.74493	93.31628	528.52783	-460.05173	-61.78724	541.46045	483.47549	90.99783	532.46252	483.86282	
6135	61.340	-168.95529	20.14120	-290.88110	200.17020	16.09853	-279.13324	-174.27588	12.67367	346.26733	204.26007	17.54738	329.96268	32.38751	1171.46082	-355.47446	-64.56537	527.59497	-461.22647	94.28589	527.90717	-460.48975	-62.15107	541.28326	482.96301	90.65589	532.42444	483.64404	
6136	61.350	-169.51180	18.23462	-293.09109	200.25618	16.14112	-278.97449	-174.42200	12.56018	346.14001	204.49101	16.06122	327.39859	32.86647	1171.33203	-355.82526	-64.42389	527.40833	-461.81772	94.74318	527.53094	-460.86688	-62.44766	541.22729	482.71426	89.37774	532.44708	483.18646	
6137	61.360	-170.93085	19.02280	-293.50549	200.13281	16.24025	-278.98584	-174.52667	12.61433	346.02441	204.34227	13.30147	328.69040	33.47515	1171.19958	-356.34241	-64.22849	527.52216	-462.26138	94.90956	527.54309	-461.26257	-63.09042	542.04590	482.30185	89.67952	533.17816	482.88797	
6138	61.370	-171.05565	17.12174	-292.55951	199.88139	16.53797	-279.01578	-174.52988	12.96779	345.94156	204.83354	14.28964	327.71194	34.14015	1171.28296	-356.87073	-63.83173	527.76782	-462.49304	95.27527	527.89282	-461.32590	-63.54772	543.42371	481.83701	89.12525	534.61963	482.76587	
6139	61.380	-170.81346	16.69809	-291.63089	199.54219	19.49311	-278.51291	-174.39748	15.76412	345.73236	204.83136	12.99894	329.61362	34.31046	1172.10669	-357.86346	-63.42757	528.17786	-462.63910	94.66106	528.67426	-461.42609	-64.32143	544.29395	481.59796	88.49958	535.62042	482.65738	
6140	61.390	-171.03812	17.33426	-291.96652	195.86687	23.12366	-276.07507	-172.26309	18.87300	347.25348	204.51842	12.83421	328.72278	34.64796	1173.03772	-358.87738	-63.01414	529.16705	-463.09143	95.25669	529.34973	-461.61124	-65.04640	544.74353	481.13605	87.99376	535.94550	482.36185	
6141	61.400	-171.20428	17.43271	-292.65433	192.29520	27.41358	-272.72192	-168.85066	24.78192	348.36694	204.11089	12.82071	328.78702	34.54549	1173.77979	-359.38022	-62.66486	529.62128	-463.66043	96.19198	529.70581	-462.01755	-65.37752	544.76929	480.82706	87.47688	535.99536	482.14502	
6142	61.410	-171.33311	17.37101	-292.49438	189.66074	36.60432	-272.79156	-166.96548	33.10779	348.45313	203.24284	12.65988	328.59415	34.44118	1174.16016	-359.72717	-62.26967	529.77838	-463.88409	96.43819	529.93921	-462.39572	-65.77797	544.97131	480.16504	87.04440	536.17920	481.77698	
6143	61.420	-171.61269	17.27084	-292.25507	189.77385	47.12442	-272.65140	-166.29286	43.37396	346.69873	202.65027	12.34277	328.73346	34.72855	1174.04260	-359.57388	-62.45420	529.87567	-464.40845	96.42673	530.02618	-462.82388	-66.13310	544.11566	478.60577	86.76974	536.24414	481.29745	
6144	61.430	-171.92140	17.29869	-292.18329	190.56998	58.86532	-275.40851	-168.56091	55.32396	344.62521	202.44939	12.00954	329.00189	34.76249	1173.91162	-359.45807	-62.80567	529.95648	-464.86813	96.10494	530.06750	-463.33313	-65.88672	544.17792	478.75195	86.75862	535.88574	480.84561	
6145	61.440	-172.48080	17.61748	-291.94034	193.36505	71.03341	-277.30511	-171.78195	67.38490	342.16403	202.33656	11.69452	328.83752	35.00300	1173.56458	-359.36182	-63.46520	530.05524	-465.26907	95.63294	529.96582	-463.84308	-65.45366	543.44269	478.58063	86.13718	535.23126	480.45056	
6146	61.450	-172.82433	17.28716	-291.96152	194.57953	83.15220	-280.10355	-173.81606	78.59136	339.58774	202.40587	11.57876	328.89499	35.28018	1173.28040	-359.08752	-63.99818	530.06775	-465.62732	95.08614	529.84149	-464.18494	-65.63752	542.64764	478.06216	86.81877	534.05505	480.02078	
6147	61.460	-173.23535	17.19142	-291.89624	196.24519	94.96231	-282.61990	-175.45102	90.02526	337.22186	202.52188	11.27768	328.96289	35.28780	1173.24731	-358.88354	-64.22902	529.95813	-465.75095	93.86793	529.80237	-464.30820	-65.42915	541.75073	477.70892	86.98248	533.25061	479.31116	
6148	61.470	-173.46474	17.21694	-291.83316	199.56439	107.50940	-283.59119	-175.86081	101.13974	335.43658	202.41634	10.89653	329.02457	35.13630	1173.32739	-358.69833	-64.67774	530.07831	-466.04169	93.34474	529.84009	-464.74765	-65.12417	541.20331	477.45779	87.02474	532.57452	479.00317	
6149	61.480	-173.74223	17.39649	-291.86673	199.14937	118.23618	-285.98880	-175.03795	111.77151	333.24554	202.19609	10.59678	328.98309	34.76019	1173.47388	-358.54492	-65.39322	530.43787	-466.32498	92.83860	530.05780	-465.30756	-65.02833	540.57153	476.77411	87.34211	532.19629	478.65018	
6150	61.490	-174.07135	17.55508	-291.85330	198.09401	128.00185	-288.72473	-173.61014	121.34346	331.63849	202.04115	10.58596	328.98932	34.28303	1173.64270	-358.53815	-65.68333	530.59875	-466.52765	92.62283	530.15204	-465.49112	-64.50245	540.59698	476.98059	87.99436	532.02112	478.48718	
6151	61.500	-174.41328	17.63514	-291.79114	198.06993	137.13322	-290.66214	-172.45660	130.06892	329.61777	201.84218	10.38204	328.93964	33.97488	1173.67078	-358.58258	-66.12533	530.62219	-466.73065	92.15369	530.22729	-465.76389	-64.35091	540.29797	476.70316	87.40854	531.81384	478.21890	
6152	61.510	-174.69571	17.68070	-291.61700	199.14667	144.80588	-292.65900	-172.15157	137.67963	327.98395	201.80702	10.29926	328.91678	33.77670	1173.59326	-358.82184	-66.19582	530.11517	-466.43008	91.61307	530.25494	-465.90186	-64.17078	540.19037	476.61237	87.50439	531.65540	478.02744	
6153	61.520	-174.90488	17.76590	-291.38080	200.78981	150.30629	-294.19437	-172.03198	143.10367	326.51004	201.63855	10.18704	328.95789	33.45316	1173.58093	-359.11945	-67.09518	530.28467	-466.48398	91.70854	530.19250	-466.25958	-63.77498	540.23193	476.45544	88.37142	531.63739	477.95215	
6154	61.530	-175.15506	17.99302	-291.16724	202.32965	152.71742	-294.66418	-173.27686	145.85341	325.85901	201.36221	10.03302	329.01703	32.94827	1173.50635	-359.36032	-67.71780	530.48083	-466.62390	91.19656	530.08447	-466.34720	-63.03848	540.48907	476.44681	88.85061	531.75031	477.73770	
6155	61.540	-175.37816	18.15695	-291.12616	203.09106	151.48735	-294.71509	-173.62070	145.67494	325.80905	200.80951	9.80762	328.86145	32.37455	1173.58667	-359.54077	-68.16692	530.57703	-466.75250	90.61618	530.09326	-466.50110	-62.70468	540.71979	476.49191	89.58042	532.00854	477.46655	
6156	61.550	-175.76587	18.27143	-290.95407	203.54192	148.01265	-294.72720	-173.25060	143.30193	326.12994	200.51015	9.59832	328.87085	31.83647	1173.74573	-359.63757	-68.93804	530.74414	-466.66623	90.03973	530.17792	-466.59967	-62.24017	540.87598	476.52454	90.11653	532.25073	477.33292	
